# xmcd
#
# Track frame offsets:
#	150
#	11461
#	22091
#	33561
#	56130
#	72748
#	95219
#	109211
#	124775
#	138096
#	161105
#	179145
#	195668
#	208756
#	218092
#	229051
#	245944
#	258386
#	268348
#	283929
#
# Disc length: 4011 seconds
#
# Revision: 1
# Processed by: cddbd v1.5.1PL2 Copyright (c) Steve Scherf et al.
# Submitted via: audiograbber 1.83.01
#
DISCID=4c0fa914
DTITLE=Earl Scruggs Review - Anniversary Special Volume 1 - Volume 2
DYEAR=1975
DGENRE=Bluegrass
TTITLE0=Banjo Man
TTITLE1=Swimming Song
TTITLE2=Gospel Ship
TTITLE3=Bleeker Street Rag
TTITLE4=Royal Majesty
TTITLE5=Rollin' in my Dreams
TTITLE6=Song to Woody
TTITLE7=Third Rate Romance
TTITLE8=Hey Porter
TTITLE9=Passing Through
TTITLE10=Rita Ballou
TTITLE11=Harbor for my Soul
TTITLE12=I've Got a Thing About You Baby
TTITLE13=Instrumantal in D Minor
TTITLE14=Every Man Has Got His Own Price
TTITLE15=Harley
TTITLE16=Broad River
TTITLE17=Fairytale
TTITLE18=I Still Miss Someone
TTITLE19=My Ship Will Sail
EXTD=
EXTT0=
EXTT1=
EXTT2=
EXTT3=
EXTT4=
EXTT5=
EXTT6=
EXTT7=
EXTT8=
EXTT9=
EXTT10=
EXTT11=
EXTT12=
EXTT13=
EXTT14=
EXTT15=
EXTT16=
EXTT17=
EXTT18=
EXTT19=
PLAYORDER=
